<?xml version="1.0" encoding="iso-8859-1"?>
<!-- Generator: Adobe Illustrator 19.0.0, SVG Export Plug-In . SVG Version: 6.00 Build 0)  -->
<svg version="1.1" id="Capa_1" xmlns="http://www.w3.org/2000/svg" xmlns:xlink="http://www.w3.org/1999/xlink" x="0px" y="0px"
	 viewBox="0 0 512 512" style="enable-background:new 0 0 512 512;" xml:space="preserve">
<path style="fill:#2E4F5A;" d="M504.116,314.343h-16.82c-4.355,0-7.884-3.53-7.884-7.884c0-4.355,3.529-7.884,7.884-7.884h16.82
	c4.355,0,7.884,3.529,7.884,7.884C512,310.814,508.471,314.343,504.116,314.343z"/>
<path style="fill:#00A7CC;" d="M208.725,171.904c0,0-37.314,0-40.997,0c-0.706,0-1.411,0.005-2.115,0.016l-65.162,17.984
	c-29.512,17.072-51.937,45.03-61.786,78.385c-0.792,2.683-3.245,4.531-6.043,4.531H6.307c-3.66,0-6.552,3.106-6.291,6.756
	l7.509,105.121c0.236,3.3,2.983,5.857,6.291,5.857h48.883c14.303,17.839,33.053,31.953,54.573,40.665v26.61
	c0,9.289,7.53,16.818,16.818,16.818h67.278c9.289,0,16.818-7.53,16.818-16.818v-16.82h117.736v16.82
	c0,9.289,7.53,16.818,16.818,16.818h67.279c9.289,0,16.818-7.53,16.818-16.818V411.49c30.758-24.659,50.458-62.541,50.458-105.031
	c0-74.312-60.241-134.553-134.553-134.553c-3.684,0-7.403,0-7.403,0L208.725,171.904z"/>
<path style="fill:#2E4F5A;" d="M83.63,280.705c-4.355,0-7.884-3.53-7.884-7.884v-16.818c0-4.355,3.529-7.884,7.884-7.884
	c4.355,0,7.884,3.53,7.884,7.884v16.818C91.514,277.176,87.985,280.705,83.63,280.705z"/>
<path style="fill:#00A7CC;" d="M167.728,188.725c0-35.431-27.389-64.465-62.15-67.085c-2.76-0.208-5.127,1.949-5.127,4.717v96.007
	L167.728,188.725z"/>
<g>
	<path style="fill:#0095C2;" d="M100.451,126.357L100.451,126.357c24.651,9.983,42.048,34.136,42.048,62.368h25.23
		c0-35.431-27.389-64.465-62.15-67.085C102.818,121.432,100.451,123.589,100.451,126.357z"/>
	<path style="fill:#0095C2;" d="M125.68,196.608c-4.355,0-7.884-3.529-7.884-7.884v-33.637c0-4.355,3.529-7.884,7.884-7.884
		s7.884,3.529,7.884,7.884v33.637C133.564,193.079,130.035,196.608,125.68,196.608z"/>
	<path style="fill:#0095C2;" d="M192.957,457.832c0,9.289-7.53,16.818-16.818,16.818h25.229c9.289,0,16.818-7.529,16.818-16.818
		v-16.82c-9.175,0-17.788,0-25.229,0V457.832z"/>
	<path style="fill:#0095C2;" d="M352.743,171.906c-3.684,0-7.402,0-7.402,0s-21.51,0-17.827,0
		c74.312,0,134.553,60.241,134.553,134.553c0,42.49-19.7,80.372-50.458,105.031v46.342c0,9.289-7.529,16.818-16.818,16.818h25.229
		c9.289,0,16.818-7.529,16.818-16.818V411.49c30.758-24.659,50.458-62.541,50.458-105.031
		C487.296,232.147,427.055,171.906,352.743,171.906z"/>
</g>
<circle style="fill:#F4B641;" cx="277.05" cy="121.444" r="84.096"/>
<path style="fill:#FB8436;" d="M284.937,114.52V80.788c5.607,2.877,9.461,8.707,9.461,15.43c0,4.355,3.529,7.884,7.884,7.884
	c4.355,0,7.884-3.529,7.884-7.884c0-15.542-10.766-28.61-25.229-32.157v-1.48c0-4.355-3.53-7.884-7.884-7.884
	c-4.355,0-7.884,3.53-7.884,7.884v1.48c-14.463,3.547-25.228,16.616-25.228,32.157s10.765,28.61,25.228,32.157v33.732
	c-5.606-2.877-9.46-8.706-9.46-15.429c0-4.355-3.53-7.884-7.884-7.884c-4.355,0-7.884,3.529-7.884,7.884
	c0,15.541,10.765,28.609,25.228,32.156v1.484c0,4.355,3.53,7.884,7.884,7.884c4.355,0,7.884-3.529,7.884-7.884v-1.484
	c14.464-3.547,25.229-16.615,25.229-32.156C310.167,131.136,299.401,118.067,284.937,114.52z M259.71,96.219
	c0-6.724,3.853-12.552,9.46-15.43v30.86C263.562,108.771,259.71,102.941,259.71,96.219z M284.937,162.106v-30.86
	c5.607,2.877,9.461,8.707,9.461,15.43C294.399,153.401,290.546,159.229,284.937,162.106z"/>
<g>
	<path style="fill:#2E4F5A;" d="M369.563,213.428H184.549c-4.355,0-7.884-3.529-7.884-7.884s3.529-7.884,7.884-7.884h185.014
		c4.355,0,7.884,3.529,7.884,7.884C377.447,209.898,373.917,213.428,369.563,213.428z"/>
	<path style="fill:#2E4F5A;" d="M158.795,474.651v-25.224c0-4.355-3.529-7.884-7.884-7.884c-4.355,0-7.884,3.53-7.884,7.884v25.224
		L158.795,474.651L158.795,474.651z"/>
	<path style="fill:#2E4F5A;" d="M369.561,441.543c-4.355,0-7.884,3.53-7.884,7.884v25.224h15.769v-25.224
		C377.445,445.072,373.915,441.543,369.561,441.543z"/>
</g>
<g>
</g>
<g>
</g>
<g>
</g>
<g>
</g>
<g>
</g>
<g>
</g>
<g>
</g>
<g>
</g>
<g>
</g>
<g>
</g>
<g>
</g>
<g>
</g>
<g>
</g>
<g>
</g>
<g>
</g>
</svg>
